<svg aria-hidden="true" style="width:0;height:0;position:absolute;overflow:hidden" xmlns="http://www.w3.org/2000/svg"><defs><symbol id="icon-phone" viewBox="0 0 32 32"><path d="M22 20c-2 2-2 4-4 4s-4-2-6-4-4-4-4-6 2-2 4-4-4-8-6-8-6 6-6 6c0 4 4.109 12.109 8 16s12 8 16 8c0 0 6-4 6-6s-6-8-8-6z"/></symbol><symbol id="icon-letter" viewBox="0 0 32 32"><path d="M29 4H3C1.35 4 0 5.35 0 7v20c0 1.65 1.35 3 3 3h26c1.65 0 3-1.35 3-3V7c0-1.65-1.35-3-3-3zM12.461 17.199 4 23.789V8.113l8.461 9.086zM5.512 8h20.976L16 15.875 5.512 8zm7.278 9.553L16 21l3.21-3.447L25.79 26H6.211l6.58-8.447zm6.749-.354L28 8.113v15.676l-8.461-6.59z"/></symbol><symbol id="icon-facebook" viewBox="0 0 32 32"><path d="M29 0H3C1.35 0 0 1.35 0 3v26c0 1.65 1.35 3 3 3h13V18h-4v-4h4v-2c0-3.306 2.694-6 6-6h4v4h-4c-1.1 0-2 .9-2 2v2h6l-1 4h-5v14h9c1.65 0 3-1.35 3-3V3c0-1.65-1.35-3-3-3z"/></symbol><symbol id="icon-instagram" viewBox="0 0 32 32"><path d="M16 2.881c4.275 0 4.781.019 6.462.094 1.563.069 2.406.331 2.969.55a4.952 4.952 0 0 1 1.837 1.194 5.015 5.015 0 0 1 1.2 1.838c.219.563.481 1.412.55 2.969.075 1.688.094 2.194.094 6.463s-.019 4.781-.094 6.463c-.069 1.563-.331 2.406-.55 2.969a4.94 4.94 0 0 1-1.194 1.837 5.02 5.02 0 0 1-1.837 1.2c-.563.219-1.413.481-2.969.55-1.688.075-2.194.094-6.463.094s-4.781-.019-6.463-.094c-1.563-.069-2.406-.331-2.969-.55a4.952 4.952 0 0 1-1.838-1.194 5.02 5.02 0 0 1-1.2-1.837c-.219-.563-.481-1.413-.55-2.969-.075-1.688-.094-2.194-.094-6.463s.019-4.781.094-6.463c.069-1.563.331-2.406.55-2.969a4.964 4.964 0 0 1 1.194-1.838 5.015 5.015 0 0 1 1.838-1.2c.563-.219 1.412-.481 2.969-.55 1.681-.075 2.188-.094 6.463-.094zM16 0c-4.344 0-4.887.019-6.594.094-1.7.075-2.869.35-3.881.744-1.056.412-1.95.956-2.837 1.85a7.833 7.833 0 0 0-1.85 2.831C.444 6.538.169 7.7.094 9.4.019 11.113 0 11.656 0 16s.019 4.887.094 6.594c.075 1.7.35 2.869.744 3.881.413 1.056.956 1.95 1.85 2.837a7.82 7.82 0 0 0 2.831 1.844c1.019.394 2.181.669 3.881.744 1.706.075 2.25.094 6.594.094s4.888-.019 6.594-.094c1.7-.075 2.869-.35 3.881-.744 1.05-.406 1.944-.956 2.831-1.844s1.438-1.781 1.844-2.831c.394-1.019.669-2.181.744-3.881.075-1.706.094-2.25.094-6.594s-.019-4.887-.094-6.594c-.075-1.7-.35-2.869-.744-3.881a7.506 7.506 0 0 0-1.831-2.844A7.82 7.82 0 0 0 26.482.843C25.463.449 24.301.174 22.601.099c-1.712-.081-2.256-.1-6.6-.1z"/><path d="M16 7.781c-4.537 0-8.219 3.681-8.219 8.219s3.681 8.219 8.219 8.219 8.219-3.681 8.219-8.219A8.221 8.221 0 0 0 16 7.781zm0 13.55a5.331 5.331 0 1 1 0-10.663 5.331 5.331 0 0 1 0 10.663zM26.462 7.456a1.919 1.919 0 1 1-3.838 0 1.919 1.919 0 0 1 3.838 0z"/></symbol><symbol id="icon-telegram" viewBox="0 0 32 32"><path d="M16 0C7.162 0 0 7.162 0 16s7.162 16 16 16 16-7.163 16-16S24.837 0 16 0zm7.863 10.969-2.625 12.369c-.181.881-.712 1.087-1.45.681l-4-2.956-1.919 1.869c-.225.219-.4.4-.8.4-.519 0-.431-.194-.606-.688L11.1 18.169l-3.956-1.231c-.856-.262-.862-.85.194-1.269l15.412-5.95c.7-.319 1.381.169 1.113 1.25z"/></symbol><symbol id="icon-linkedin" viewBox="0 0 32 32"><path d="M12 12h5.535v2.837h.079c.77-1.381 2.655-2.837 5.464-2.837C28.92 12 30 15.637 30 20.367V30h-5.769v-8.54c0-2.037-.042-4.657-3.001-4.657-3.005 0-3.463 2.218-3.463 4.509V30H12V12zM2 12h6v18H2V12zM8 7a3 3 0 1 1-6 0 3 3 0 0 1 6 0z"/></symbol><symbol id="icon-symbol-right" viewBox="0 0 32 32"><path d="M12.772 3.769c-1.792 1.764-3.243 3.243-3.243 3.3 0 .071 1.18 1.294 2.617 2.731l2.617 2.617.512-.398c.284-.213.512-.441.512-.512 0-.057.128-.228.284-.384.27-.256.242-.284-1.493-2.02-.981-.981-1.778-1.877-1.778-1.991s.768-.981 1.707-1.92l1.707-1.707 2.133 2.133c1.18 1.166 2.133 2.233 2.133 2.375 0 .199-5.49 5.66-5.803 5.76-.057.028-1.436-1.237-3.072-2.802-1.636-1.579-3.015-2.83-3.072-2.816-.156.057-6.258 6.044-6.812 6.684-.313.37-.427.597-.341.74.185.327 7.182 7.054 7.339 7.054.071 0 1.394-1.252 2.93-2.773 1.55-1.522 2.901-2.773 3.015-2.773.256 0 5.817 5.547 5.817 5.817 0 .1-.967 1.138-2.162 2.304l-2.162 2.119-1.749-1.735c-.967-.967-1.749-1.806-1.749-1.892s.612-.754 1.365-1.493c.74-.74 1.55-1.579 1.778-1.877l.412-.512-.74-.711c-.427-.398-.825-.668-.91-.626-.398.242-4.892 5.092-4.892 5.291 0 .228 6.244 6.542 6.471 6.542.213 0 7.467-7.31 7.467-7.538 0-.114-1.636-1.82-3.641-3.769l-3.641-3.57 3.641-3.612c2.005-1.977 3.641-3.669 3.641-3.755 0-.199-7.282-7.481-7.467-7.481-.085 0-1.593 1.451-3.371 3.2zm-.114 11.221c.085.114.142.299.114.398s-.996 1.109-2.148 2.247l-2.105 2.062-2.148-2.19-2.162-2.19 2.204-2.091 2.19-2.105 1.934 1.835c1.067 1.01 2.02 1.92 2.119 2.034z"/><path d="M21.134 11.961c-1.764 1.806-3.214 3.328-3.214 3.385 0 .213 6.542 6.571 6.713 6.528.284-.071 6.372-6.3 6.372-6.514 0-.185-6.372-6.684-6.556-6.684-.057 0-1.55 1.479-3.314 3.285zm6.158 3.541c-.071.114-.754.868-1.508 1.664l-1.394 1.451-3.385-3.214 1.678-1.621 1.664-1.621 1.536 1.564c1.195 1.195 1.508 1.607 1.408 1.778z"/></symbol><symbol id="icon-symbol-left" viewBox="0 0 32 32"><path d="M12.06 5.362c-2.02 2.005-3.669 3.755-3.669 3.883 0 .114 1.636 1.82 3.641 3.769l3.641 3.57-3.641 3.612c-2.005 1.977-3.641 3.669-3.641 3.755 0 .242 7.339 7.524 7.509 7.467.213-.085 6.571-6.357 6.571-6.485 0-.071-1.18-1.294-2.617-2.731l-2.617-2.617-.512.398c-.284.213-.512.441-.512.512 0 .057-.128.228-.284.384-.27.256-.242.284 1.493 2.02.981.981 1.778 1.877 1.778 1.991s-.768.981-1.707 1.92l-1.707 1.707-2.133-2.133c-1.18-1.166-2.133-2.233-2.133-2.375 0-.199 5.49-5.66 5.803-5.76.057-.028 1.436 1.237 3.072 2.802 1.636 1.579 3.015 2.83 3.072 2.816.156-.057 6.258-6.044 6.812-6.684.313-.37.427-.597.341-.74-.185-.327-7.182-7.054-7.339-7.054-.071 0-1.394 1.252-2.93 2.773-1.55 1.522-2.901 2.773-3.015 2.773-.256 0-5.817-5.547-5.817-5.817 0-.1.967-1.138 2.162-2.304l2.162-2.119 1.749 1.735c.967.967 1.749 1.806 1.749 1.892s-.612.754-1.365 1.493c-.74.74-1.55 1.579-1.778 1.877l-.412.512.74.711c.427.398.825.668.91.626.398-.242 4.892-5.092 4.892-5.291 0-.228-6.244-6.542-6.471-6.542-.057 0-1.778 1.65-3.797 3.655zm13.611 9.173 2.119 2.148-2.204 2.105-2.19 2.105-.996-.953c-2.56-2.446-3.2-3.086-3.2-3.243s4.11-4.309 4.281-4.324c.043 0 1.038.967 2.19 2.162z"/><path d="M4.068 13.312C1.11 16.341.953 16.526 1.124 16.839c.1.171 1.593 1.721 3.314 3.442l3.115 3.115 3.271-3.314c1.792-1.835 3.257-3.371 3.257-3.428 0-.199-6.514-6.556-6.713-6.542-.1 0-1.593 1.451-3.3 3.2zm6.855 3.328c-.028.043-.782.782-1.678 1.636L7.609 19.84l-1.55-1.579-1.536-1.593 3.044-3.3 1.692 1.593c.939.882 1.678 1.636 1.664 1.678z"/></symbol><symbol id="icon-untitled" viewBox="0 0 32 32"><path d="M11.89 4.267 8.605 7.552l3.314 3.257c1.835 1.806 3.371 3.271 3.428 3.271.213 0 6.571-6.542 6.528-6.713-.071-.284-6.3-6.372-6.514-6.372-.1 0-1.664 1.479-3.47 3.271zm5.276 1.948 1.451 1.394-3.214 3.385-1.621-1.678-1.621-1.664 1.564-1.536c1.195-1.195 1.607-1.508 1.778-1.408.114.071.868.754 1.664 1.508z"/><path d="M4.21 12.075c-2.02 2.02-3.655 3.74-3.627 3.826.085.213 6.357 6.571 6.485 6.571.071 0 1.294-1.18 2.731-2.617l2.617-2.617-.398-.512c-.213-.284-.441-.512-.512-.512-.057 0-.228-.128-.384-.284-.256-.27-.284-.242-2.02 1.493-.981.981-1.877 1.778-1.991 1.778s-.981-.768-1.92-1.707l-1.707-1.707 2.133-2.133c1.166-1.18 2.233-2.133 2.375-2.133.199 0 5.66 5.49 5.76 5.803.028.057-1.237 1.436-2.802 3.072-1.579 1.636-2.83 3.015-2.816 3.072.057.156 6.044 6.258 6.684 6.812.37.313.597.427.74.341.327-.185 7.054-7.182 7.054-7.339 0-.071-1.252-1.394-2.773-2.93-1.522-1.55-2.773-2.901-2.773-3.015 0-.256 5.547-5.817 5.817-5.817.1 0 1.138.967 2.304 2.162l2.119 2.162-1.735 1.749c-.967.967-1.806 1.749-1.892 1.749s-.754-.612-1.493-1.365c-.74-.74-1.579-1.55-1.877-1.778l-.512-.412-.711.74c-.398.427-.668.825-.626.91.242.398 5.092 4.892 5.291 4.892.228 0 6.542-6.244 6.542-6.471 0-.213-7.31-7.467-7.538-7.467-.114 0-1.82 1.636-3.769 3.641l-3.57 3.641-3.612-3.641c-1.977-2.005-3.669-3.641-3.755-3.641s-1.82 1.65-3.84 3.684zm13.426 9.301 2.062 2.105-2.19 2.148-2.19 2.162-2.105-2.204-2.105-2.19.953-.996c2.588-2.702 3.1-3.2 3.3-3.172.114.028 1.138.996 2.276 2.148z"/></symbol><symbol id="icon-menu" viewBox="0 0 32 32"><path d="M2 6h28v6H2zm0 8h28v6H2zm0 8h28v6H2z"/></symbol><symbol id="icon-cross" viewBox="0 0 32 32"><path d="M31.708 25.708 22 16l9.708-9.708a1 1 0 0 0 0-1.414L27.122.292a1 1 0 0 0-1.414-.001L16 9.999 6.292.291a.998.998 0 0 0-1.414.001L.292 4.878a1 1 0 0 0 0 1.414L10 16 .292 25.708a.999.999 0 0 0 0 1.414l4.586 4.586a1 1 0 0 0 1.414 0L16 22l9.708 9.708a1 1 0 0 0 1.414 0l4.586-4.586a.999.999 0 0 0 0-1.414z"/></symbol><symbol id="icon-up" viewBox="0 0 32 32"><path d="m27.414 12.586-10-10a2 2 0 0 0-2.828 0l-10 10a2 2 0 1 0 2.828 2.828L14 8.828V28a2 2 0 1 0 4 0V8.828l6.586 6.586c.39.39.902.586 1.414.586s1.024-.195 1.414-.586a2 2 0 0 0 0-2.828z"/></symbol></defs></svg>