<svg aria-hidden="true" style="position: absolute; width: 0; height: 0; overflow: hidden;" version="1.1" xmlns="http://www.w3.org/2000/svg" xmlns:xlink="http://www.w3.org/1999/xlink">
<defs>
<symbol id="icon-phone" viewBox="0 0 32 32">
<path d="M22 20c-2 2-2 4-4 4s-4-2-6-4-4-4-4-6 2-2 4-4-4-8-6-8-6 6-6 6c0 4 4.109 12.109 8 16s12 8 16 8c0 0 6-4 6-6s-6-8-8-6z"></path>
</symbol>
<symbol id="icon-letter" viewBox="0 0 32 32">
<path d="M29 4h-26c-1.65 0-3 1.35-3 3v20c0 1.65 1.35 3 3 3h26c1.65 0 3-1.35 3-3v-20c0-1.65-1.35-3-3-3zM12.461 17.199l-8.461 6.59v-15.676l8.461 9.086zM5.512 8h20.976l-10.488 7.875-10.488-7.875zM12.79 17.553l3.21 3.447 3.21-3.447 6.58 8.447h-19.579l6.58-8.447zM19.539 17.199l8.461-9.086v15.676l-8.461-6.59z"></path>
</symbol>
<symbol id="icon-facebook" viewBox="0 0 32 32">
<path d="M29 0h-26c-1.65 0-3 1.35-3 3v26c0 1.65 1.35 3 3 3h13v-14h-4v-4h4v-2c0-3.306 2.694-6 6-6h4v4h-4c-1.1 0-2 0.9-2 2v2h6l-1 4h-5v14h9c1.65 0 3-1.35 3-3v-26c0-1.65-1.35-3-3-3z"></path>
</symbol>
<symbol id="icon-instagram" viewBox="0 0 32 32">
<path d="M16 2.881c4.275 0 4.781 0.019 6.462 0.094 1.563 0.069 2.406 0.331 2.969 0.55 0.744 0.288 1.281 0.638 1.837 1.194 0.563 0.563 0.906 1.094 1.2 1.838 0.219 0.563 0.481 1.412 0.55 2.969 0.075 1.688 0.094 2.194 0.094 6.463s-0.019 4.781-0.094 6.463c-0.069 1.563-0.331 2.406-0.55 2.969-0.288 0.744-0.637 1.281-1.194 1.837-0.563 0.563-1.094 0.906-1.837 1.2-0.563 0.219-1.413 0.481-2.969 0.55-1.688 0.075-2.194 0.094-6.463 0.094s-4.781-0.019-6.463-0.094c-1.563-0.069-2.406-0.331-2.969-0.55-0.744-0.288-1.281-0.637-1.838-1.194-0.563-0.563-0.906-1.094-1.2-1.837-0.219-0.563-0.481-1.413-0.55-2.969-0.075-1.688-0.094-2.194-0.094-6.463s0.019-4.781 0.094-6.463c0.069-1.563 0.331-2.406 0.55-2.969 0.288-0.744 0.638-1.281 1.194-1.838 0.563-0.563 1.094-0.906 1.838-1.2 0.563-0.219 1.412-0.481 2.969-0.55 1.681-0.075 2.188-0.094 6.463-0.094zM16 0c-4.344 0-4.887 0.019-6.594 0.094-1.7 0.075-2.869 0.35-3.881 0.744-1.056 0.412-1.95 0.956-2.837 1.85-0.894 0.888-1.438 1.781-1.85 2.831-0.394 1.019-0.669 2.181-0.744 3.881-0.075 1.713-0.094 2.256-0.094 6.6s0.019 4.887 0.094 6.594c0.075 1.7 0.35 2.869 0.744 3.881 0.413 1.056 0.956 1.95 1.85 2.837 0.887 0.887 1.781 1.438 2.831 1.844 1.019 0.394 2.181 0.669 3.881 0.744 1.706 0.075 2.25 0.094 6.594 0.094s4.888-0.019 6.594-0.094c1.7-0.075 2.869-0.35 3.881-0.744 1.050-0.406 1.944-0.956 2.831-1.844s1.438-1.781 1.844-2.831c0.394-1.019 0.669-2.181 0.744-3.881 0.075-1.706 0.094-2.25 0.094-6.594s-0.019-4.887-0.094-6.594c-0.075-1.7-0.35-2.869-0.744-3.881-0.394-1.063-0.938-1.956-1.831-2.844-0.887-0.887-1.781-1.438-2.831-1.844-1.019-0.394-2.181-0.669-3.881-0.744-1.712-0.081-2.256-0.1-6.6-0.1v0z"></path>
<path d="M16 7.781c-4.537 0-8.219 3.681-8.219 8.219s3.681 8.219 8.219 8.219 8.219-3.681 8.219-8.219c0-4.537-3.681-8.219-8.219-8.219zM16 21.331c-2.944 0-5.331-2.387-5.331-5.331s2.387-5.331 5.331-5.331c2.944 0 5.331 2.387 5.331 5.331s-2.387 5.331-5.331 5.331z"></path>
<path d="M26.462 7.456c0 1.060-0.859 1.919-1.919 1.919s-1.919-0.859-1.919-1.919c0-1.060 0.859-1.919 1.919-1.919s1.919 0.859 1.919 1.919z"></path>
</symbol>
<symbol id="icon-telegram" viewBox="0 0 32 32">
<path d="M16 0c-8.838 0-16 7.162-16 16s7.162 16 16 16 16-7.163 16-16-7.163-16-16-16zM23.863 10.969l-2.625 12.369c-0.181 0.881-0.712 1.087-1.45 0.681l-4-2.956-1.919 1.869c-0.225 0.219-0.4 0.4-0.8 0.4-0.519 0-0.431-0.194-0.606-0.688l-1.363-4.475-3.956-1.231c-0.856-0.262-0.862-0.85 0.194-1.269l15.412-5.95c0.7-0.319 1.381 0.169 1.113 1.25z"></path>
</symbol>
<symbol id="icon-linkedin" viewBox="0 0 32 32">
<path d="M12 12h5.535v2.837h0.079c0.77-1.381 2.655-2.837 5.464-2.837 5.842 0 6.922 3.637 6.922 8.367v9.633h-5.769v-8.54c0-2.037-0.042-4.657-3.001-4.657-3.005 0-3.463 2.218-3.463 4.509v8.688h-5.767v-18z"></path>
<path d="M2 12h6v18h-6v-18z"></path>
<path d="M8 7c0 1.657-1.343 3-3 3s-3-1.343-3-3c0-1.657 1.343-3 3-3s3 1.343 3 3z"></path>
</symbol>
<symbol id="icon-symbol-right" viewBox="0 0 32 32">
<path d="M12.772 3.769c-1.792 1.764-3.243 3.243-3.243 3.3 0 0.071 1.18 1.294 2.617 2.731l2.617 2.617 0.512-0.398c0.284-0.213 0.512-0.441 0.512-0.512 0-0.057 0.128-0.228 0.284-0.384 0.27-0.256 0.242-0.284-1.493-2.020-0.981-0.981-1.778-1.877-1.778-1.991s0.768-0.981 1.707-1.92l1.707-1.707 2.133 2.133c1.18 1.166 2.133 2.233 2.133 2.375 0 0.199-5.49 5.66-5.803 5.76-0.057 0.028-1.436-1.237-3.072-2.802-1.636-1.579-3.015-2.83-3.072-2.816-0.156 0.057-6.258 6.044-6.812 6.684-0.313 0.37-0.427 0.597-0.341 0.74 0.185 0.327 7.182 7.054 7.339 7.054 0.071 0 1.394-1.252 2.93-2.773 1.55-1.522 2.901-2.773 3.015-2.773 0.256 0 5.817 5.547 5.817 5.817 0 0.1-0.967 1.138-2.162 2.304l-2.162 2.119-1.749-1.735c-0.967-0.967-1.749-1.806-1.749-1.892s0.612-0.754 1.365-1.493c0.74-0.74 1.55-1.579 1.778-1.877l0.412-0.512-0.74-0.711c-0.427-0.398-0.825-0.668-0.91-0.626-0.398 0.242-4.892 5.092-4.892 5.291 0 0.228 6.244 6.542 6.471 6.542 0.213 0 7.467-7.31 7.467-7.538 0-0.114-1.636-1.82-3.641-3.769l-3.641-3.57 3.641-3.612c2.005-1.977 3.641-3.669 3.641-3.755 0-0.199-7.282-7.481-7.467-7.481-0.085 0-1.593 1.451-3.371 3.2zM12.658 14.99c0.085 0.114 0.142 0.299 0.114 0.398s-0.996 1.109-2.148 2.247l-2.105 2.062-2.148-2.19-2.162-2.19 2.204-2.091 2.19-2.105 1.934 1.835c1.067 1.010 2.020 1.92 2.119 2.034z"></path>
<path d="M21.134 11.961c-1.764 1.806-3.214 3.328-3.214 3.385 0 0.213 6.542 6.571 6.713 6.528 0.284-0.071 6.372-6.3 6.372-6.514 0-0.185-6.372-6.684-6.556-6.684-0.057 0-1.55 1.479-3.314 3.285zM27.292 15.502c-0.071 0.114-0.754 0.868-1.508 1.664l-1.394 1.451-3.385-3.214 1.678-1.621 1.664-1.621 1.536 1.564c1.195 1.195 1.508 1.607 1.408 1.778z"></path>
</symbol>
<symbol id="icon-symbol-left" viewBox="0 0 32 32">
<path d="M12.060 5.362c-2.020 2.005-3.669 3.755-3.669 3.883 0 0.114 1.636 1.82 3.641 3.769l3.641 3.57-3.641 3.612c-2.005 1.977-3.641 3.669-3.641 3.755 0 0.242 7.339 7.524 7.509 7.467 0.213-0.085 6.571-6.357 6.571-6.485 0-0.071-1.18-1.294-2.617-2.731l-2.617-2.617-0.512 0.398c-0.284 0.213-0.512 0.441-0.512 0.512 0 0.057-0.128 0.228-0.284 0.384-0.27 0.256-0.242 0.284 1.493 2.020 0.981 0.981 1.778 1.877 1.778 1.991s-0.768 0.981-1.707 1.92l-1.707 1.707-2.133-2.133c-1.18-1.166-2.133-2.233-2.133-2.375 0-0.199 5.49-5.66 5.803-5.76 0.057-0.028 1.436 1.237 3.072 2.802 1.636 1.579 3.015 2.83 3.072 2.816 0.156-0.057 6.258-6.044 6.812-6.684 0.313-0.37 0.427-0.597 0.341-0.74-0.185-0.327-7.182-7.054-7.339-7.054-0.071 0-1.394 1.252-2.93 2.773-1.55 1.522-2.901 2.773-3.015 2.773-0.256 0-5.817-5.547-5.817-5.817 0-0.1 0.967-1.138 2.162-2.304l2.162-2.119 1.749 1.735c0.967 0.967 1.749 1.806 1.749 1.892s-0.612 0.754-1.365 1.493c-0.74 0.74-1.55 1.579-1.778 1.877l-0.412 0.512 0.74 0.711c0.427 0.398 0.825 0.668 0.91 0.626 0.398-0.242 4.892-5.092 4.892-5.291 0-0.228-6.244-6.542-6.471-6.542-0.057 0-1.778 1.65-3.797 3.655zM25.671 14.535l2.119 2.148-2.204 2.105-2.19 2.105-0.996-0.953c-2.56-2.446-3.2-3.086-3.2-3.243s4.11-4.309 4.281-4.324c0.043 0 1.038 0.967 2.19 2.162z"></path>
<path d="M4.068 13.312c-2.958 3.029-3.115 3.214-2.944 3.527 0.1 0.171 1.593 1.721 3.314 3.442l3.115 3.115 3.271-3.314c1.792-1.835 3.257-3.371 3.257-3.428 0-0.199-6.514-6.556-6.713-6.542-0.1 0-1.593 1.451-3.3 3.2zM10.923 16.64c-0.028 0.043-0.782 0.782-1.678 1.636l-1.636 1.564-1.55-1.579-1.536-1.593 3.044-3.3 1.692 1.593c0.939 0.882 1.678 1.636 1.664 1.678z"></path>
</symbol>
<symbol id="icon-untitled" viewBox="0 0 32 32">
<path d="M11.89 4.267l-3.285 3.285 3.314 3.257c1.835 1.806 3.371 3.271 3.428 3.271 0.213 0 6.571-6.542 6.528-6.713-0.071-0.284-6.3-6.372-6.514-6.372-0.1 0-1.664 1.479-3.47 3.271zM17.166 6.215l1.451 1.394-3.214 3.385-1.621-1.678-1.621-1.664 1.564-1.536c1.195-1.195 1.607-1.508 1.778-1.408 0.114 0.071 0.868 0.754 1.664 1.508z"></path>
<path d="M4.21 12.075c-2.020 2.020-3.655 3.74-3.627 3.826 0.085 0.213 6.357 6.571 6.485 6.571 0.071 0 1.294-1.18 2.731-2.617l2.617-2.617-0.398-0.512c-0.213-0.284-0.441-0.512-0.512-0.512-0.057 0-0.228-0.128-0.384-0.284-0.256-0.27-0.284-0.242-2.020 1.493-0.981 0.981-1.877 1.778-1.991 1.778s-0.981-0.768-1.92-1.707l-1.707-1.707 2.133-2.133c1.166-1.18 2.233-2.133 2.375-2.133 0.199 0 5.66 5.49 5.76 5.803 0.028 0.057-1.237 1.436-2.802 3.072-1.579 1.636-2.83 3.015-2.816 3.072 0.057 0.156 6.044 6.258 6.684 6.812 0.37 0.313 0.597 0.427 0.74 0.341 0.327-0.185 7.054-7.182 7.054-7.339 0-0.071-1.252-1.394-2.773-2.93-1.522-1.55-2.773-2.901-2.773-3.015 0-0.256 5.547-5.817 5.817-5.817 0.1 0 1.138 0.967 2.304 2.162l2.119 2.162-1.735 1.749c-0.967 0.967-1.806 1.749-1.892 1.749s-0.754-0.612-1.493-1.365c-0.74-0.74-1.579-1.55-1.877-1.778l-0.512-0.412-0.711 0.74c-0.398 0.427-0.668 0.825-0.626 0.91 0.242 0.398 5.092 4.892 5.291 4.892 0.228 0 6.542-6.244 6.542-6.471 0-0.213-7.31-7.467-7.538-7.467-0.114 0-1.82 1.636-3.769 3.641l-3.57 3.641-3.612-3.641c-1.977-2.005-3.669-3.641-3.755-3.641s-1.82 1.65-3.84 3.684zM17.636 21.376l2.062 2.105-2.19 2.148-2.19 2.162-2.105-2.204-2.105-2.19 0.953-0.996c2.588-2.702 3.1-3.2 3.3-3.172 0.114 0.028 1.138 0.996 2.276 2.148z"></path>
</symbol>
</defs>
</svg>
